<?xml version="1.0" encoding="iso-8859-1"?>
<!-- source https://commons.wikimedia.org/wiki/File:Creative-Tail-Halloween-brain.svg -->
<!-- Generator: Adobe Illustrator 15.1.0, SVG Export Plug-In . SVG Version: 6.00 Build 0)  -->
<!DOCTYPE svg PUBLIC "-//W3C//DTD SVG 1.1//EN" "http://www.w3.org/Graphics/SVG/1.1/DTD/svg11.dtd">
<svg version="1.1" id="Layer_1" xmlns="http://www.w3.org/2000/svg" x="0px" y="0px"
     width="140px" height="140px" viewBox="0 0 140 140" style="enable-background:new 0 0 140 140;" xml:space="preserve">
<g>
	<path style="fill:#F2F2F2;"
        d="M70,130c-33.084,0-60-26.917-60-60s26.916-60,60-60s60,26.917,60,60S103.084,130,70,130z"/>
  <circle style="fill:#2E8677;" cx="70" cy="70" r="58.064"/>
  <g>
		<path style="fill:#FFEBFF;" d="M56.958,36.526c-0.965,0-1.972,0.197-2.992,0.581C40.21,42.278,31.664,55.666,31.664,72.044
			c0,12.521,4.574,23.034,12.884,29.603c4.061,3.209,8.929,3.765,13.485,1.496c4.278-2.127,6.602-6.639,6.602-12.379v-44.88
			c0-3.685-0.889-6.198-2.988-7.681C60.053,37.076,58.606,36.526,56.958,36.526z"/>
    <path style="fill:#FFEBFF;" d="M83.534,36.526c-2.223,0-4.565,0.611-6.071,1.676c-2.234,1.58-4.828,4.428-4.828,7.681v44.881
			c0,4.924,3.555,10.295,8.541,12.772c1.838,0.916,4.086,1.796,6.175,1.796h0.02c3.063,0,6.061-1.424,8.424-3.292
			c8.564-6.772,13.286-17.483,13.286-29.799c0-16.426-8.465-29.912-22.098-35.035C85.976,36.826,84.784,36.526,83.534,36.526z"/>
    <g>
			<path style="fill:#DED2ED;" d="M72.635,56.883c3,3.25,6.305,3.813,7.695,3.891c0.02,0.001,0.142,0.002,0.163,0.002
				c0.533,0,1.034-0.419,1.065-0.96c0.032-0.562-0.37-1.043-0.933-1.075c-0.974-0.057-4.528-0.524-7.036-4.191
				c-0.182-0.265-0.956-0.403-0.956-0.425L72.635,56.883L72.635,56.883z"/>
      <path style="fill:#DED2ED;" d="M99.887,97.801c-0.789-0.8-1.568-1.685-2.329-2.551c-2.496-2.838-5.078-5.771-8.273-6.025
				c-0.572-0.039-1.052,0.375-1.099,0.937c-0.043,0.561,0.375,1.052,0.937,1.096c2.374,0.188,4.575,2.689,6.905,5.339
				c0.793,0.903,1.608,1.827,2.448,2.678C98.961,98.796,99.432,98.307,99.887,97.801z"/>
      <path style="fill:#DED2ED;" d="M82.294,50.644c-0.077,0.557,0.313,1.072,0.869,1.149c0.13,0.018,2.63,0.361,4.935,0.361
				c0.109,0,0.215-0.004,0.324-0.005c-0.203,1.434-0.29,2.741-0.238,4.329c0.02,0.552,0.47,0.855,1.019,0.855
				c0.012,0,0.022,0,0.032,0c0.563,0,1.006-0.354,0.986-0.916c-0.102-3.102,0.128-10.555,5.816-14.007
				c-0.544-0.449-1.064-0.84-1.64-1.252c-2.801,1.955-4.656,5.02-5.594,8.918c-2.291,0.095-5.328-0.311-5.361-0.314
				C82.888,49.68,82.371,50.086,82.294,50.644z"/>
      <path style="fill:#DED2ED;" d="M97.467,63.192c0.104,1.581,0.258,3.924,0.056,4.631c-1.7,0.737-5.839,0.344-8.128-0.094
				c-0.557-0.106-1.088,0.255-1.192,0.809c-0.105,0.553,0.257,1.087,0.809,1.192c0.432,0.083,2.961,0.545,5.476,0.545
				c1.566,0,3.13-0.179,4.176-0.742c1.171-0.631,1.098-2.548,0.841-6.477c-0.123-1.854-0.327-4.957-0.004-5.487
				c0.665-0.506,2.229-0.418,3.891-0.323c0.961,0.054,2.044,0.096,3.165,0.067c-0.251-0.686-0.515-1.365-0.802-2.028
				c-0.767-0.006-1.52-0.033-2.247-0.074c-2.133-0.119-3.979-0.225-5.241,0.736C97.108,56.829,97.201,59.155,97.467,63.192z"/>
      <path style="fill:#DED2ED;" d="M92.795,80.551c-3.322-1.687-11.435-9.458-11.435-11.373c0-0.563-0.455-1.019-1.019-1.019
				c-0.564,0-1.02,0.456-1.02,1.019c0,1.313,1.229,3.344,3.152,5.428c-1.771,1.201-5.842,2.823-9.842,2.847v2.04
				c4-0.022,9.137-1.85,11.27-3.413c2.904,2.873,6.424,5.557,7.863,6.289c3.455,1.759,8.394,2.625,15.302,2.723
				c0.216-0.667,0.438-1.343,0.616-2.028C100.881,83.006,96.01,82.189,92.795,80.551z"/>
      <path style="fill:#DED2ED;" d="M83.304,92.344c-0.563,0-1.02,0.456-1.02,1.02c0,2.914-2.306,5.524-4.322,7.479
				c0.511,0.45,1.055,0.87,1.628,1.257c2.255-2.213,4.731-5.17,4.731-8.736C84.322,92.799,83.867,92.344,83.304,92.344z"/>
      <path style="fill:#DED2ED;" d="M64.635,77.438c-3-0.097-4.602-1.009-6.35-2.728c1.948-2.106,3.477-4.174,3.477-5.532
				c0-0.563-0.424-1.019-0.987-1.019c-0.563,0-1.003,0.456-1.003,1.019c0,1.913-8.102,9.686-11.426,11.373
				c-3.184,1.623-8.367,2.461-15.388,2.512c0.17,0.686,0.36,1.362,0.564,2.028c7.063-0.095,12.375-1.003,15.754-2.723
				c1.474-0.749,4.71-3.369,7.587-6.198c2.133,2.1,4.771,3.206,7.771,3.305L64.635,77.438L64.635,77.438z"/>
      <path style="fill:#DED2ED;" d="M44.945,42.437c5.705,3.447,6.084,10.871,5.984,13.975c-0.019,0.563,0.422,0.921,0.985,0.921
				c0.011,0,0.021,0,0.032,0c0.549,0,1-0.3,1.018-0.851c0.053-1.588-0.034-3.001-0.236-4.437c0.107,0.001,0.212,0.056,0.322,0.056
				c2.305,0,4.804-0.317,4.934-0.334c0.559-0.078,0.946-0.581,0.869-1.138c-0.078-0.557-0.593-0.943-1.148-0.861
				c-0.033,0.004-3.063,0.423-5.358,0.329c-0.946-3.961-2.94-7.108-5.799-9.061c-0.586,0.413-1.16,0.842-1.716,1.291
				C44.871,42.364,44.899,42.409,44.945,42.437z"/>
      <path style="fill:#DED2ED;" d="M60.555,60.776c0.021,0-0.09-0.001-0.07-0.002c2.097-0.12,2.15-0.66,4.15-2.562v-3.315
				c0,0.076-0.162,0.174-0.266,0.324c-2.345,3.423-2.342,3.427-3.938,3.521c-0.562,0.032-0.957,0.513-0.925,1.075
				C59.536,60.358,60.019,60.776,60.555,60.776z"/>
      <path style="fill:#DED2ED;" d="M58.863,93.362c0-0.563-0.454-1.02-1.019-1.02c-0.563,0-1.019,0.456-1.019,1.02
				c0,3.655,1.918,5.95,3.958,7.954c0.497-0.461,0.967-0.954,1.38-1.5C60.393,98.07,58.863,96.219,58.863,93.362z"/>
      <path style="fill:#DED2ED;" d="M37.761,57.523c1.559-0.182,3.322-0.387,3.825-0.017c0.39,0.595,0.186,3.698,0.063,5.551
				c-0.258,3.929-0.33,5.846,0.844,6.479c1.045,0.562,2.604,0.741,4.171,0.741c2.516,0,5.043-0.462,5.476-0.545
				c0.553-0.105,0.914-0.64,0.81-1.192c-0.105-0.552-0.644-0.914-1.192-0.809c-2.291,0.439-6.428,0.833-8.127,0.094
				c-0.203-0.707-0.05-3.051,0.055-4.633c0.266-4.036,0.358-6.361-0.797-7.241c-1.227-0.932-3.14-0.71-5.361-0.451
				c-0.879,0.102-1.776,0.199-2.663,0.238c-0.285,0.675-0.565,1.353-0.814,2.051C35.324,57.799,36.608,57.658,37.761,57.523z"/>
      <path style="fill:#DED2ED;" d="M52.963,90.161c-0.044-0.562-0.521-0.976-1.096-0.937c-3.258,0.258-6.032,3.293-8.718,6.226
				c-0.802,0.877-1.626,1.772-2.44,2.571c0.453,0.507,0.924,0.996,1.411,1.471c0.857-0.842,1.707-1.764,2.532-2.666
				c2.42-2.643,4.919-5.375,7.375-5.569C52.589,91.212,53.008,90.722,52.963,90.161z"/>
		</g>
	</g>
</g>
</svg>
